# xmcd
#
# Track frame offsets: 
#        150
#        16889
#        35433
#        52352
#        68689
#        81159
#        106557
#        116873
#        130280
#        142069
#        159332
#        184743
#
# Disc length: 2804 seconds
#
# Revision: 0
# Processed by: cddbd v1.5.2PL0 Copyright (c) Steve Scherf et al.
# Submitted via: ExactAudioCopy v1.0b3
#
DISCID=a30af20c
DTITLE=Cherlene (from Archer) - Cherlene - Music from FX Network's Arc
DTITLE=her
DYEAR=2014
DGENRE=Country Novelty
TTITLE0=Danger Zone [featuring Kenny Loggins]
TTITLE1=Swing Shift
TTITLE2=Midnight Blues
TTITLE3=40 Miles of Mountain Road
TTITLE4=Baby Please Don't Go
TTITLE5=Cherlene's Broken Hearts and Auto Parts
TTITLE6=I'll Burn It Down
TTITLE7=It's All About Me
TTITLE8=Eastbound and Down
TTITLE9=Chattahoochie Coochie Man
TTITLE10=Gypsy Woman
TTITLE11=Straight to Hell
EXTD=
EXTT0=
EXTT1=
EXTT2=
EXTT3=
EXTT4=
EXTT5=
EXTT6=
EXTT7=
EXTT8=
EXTT9=
EXTT10=
EXTT11=
PLAYORDER=
